<svg width="488" height="261" viewBox="0 0 488 261" fill="none" xmlns="http://www.w3.org/2000/svg">
<path d="M350 47C323.815 47 311.06 67.5609 301.589 85.3887C296.646 94.6928 292.631 103.188 287.94 109.591C283.323 115.893 278.869 119 273.5 119H210.5C205.131 119 200.677 115.893 196.06 109.591C191.369 103.188 187.354 94.6928 182.411 85.3887C172.94 67.5609 160.185 47 134 47H34.001C34.0006 47 34 47 34 51.5C34 56 34.0006 56 34.001 56H134C154.315 56 164.81 71.4392 174.464 89.6113C179.083 98.3071 183.6 107.812 188.8 114.909C194.073 122.107 200.869 128 210.5 128H273.5C283.131 128 289.927 122.107 295.2 114.909C300.4 107.812 304.917 98.3071 309.536 89.6113C319.19 71.4392 329.685 56 350 56H449.999C449.999 56 450 56 450 51.5C450 47 449.999 47 449.999 47H350ZM449.999 56C452.484 56 454.5 53.9853 454.5 51.5C454.5 49.0147 452.484 47 449.999 47V56ZM34.001 47C31.5157 47 29.5 49.0147 29.5 51.5C29.5 53.9853 31.5157 56 34.001 56V47Z" fill="white"/>
<path d="M351.5 208.5C325.315 208.5 312.56 187.939 303.089 170.111C298.146 160.807 294.131 152.312 289.44 145.909C284.823 139.607 280.369 136.5 275 136.5H212C206.631 136.5 202.177 139.607 197.56 145.909C192.869 152.312 188.854 160.807 183.911 170.111C174.44 187.939 161.685 208.5 135.5 208.5H35.501C35.5006 208.5 35.5 208.5 35.5 204C35.5 199.5 35.5006 199.5 35.501 199.5H135.5C155.815 199.5 166.31 184.061 175.964 165.889C180.583 157.193 185.1 147.688 190.3 140.591C195.573 133.393 202.369 127.5 212 127.5H275C284.631 127.5 291.427 133.393 296.7 140.591C301.9 147.688 306.417 157.193 311.036 165.889C320.69 184.061 331.185 199.5 351.5 199.5H451.499C451.499 199.5 451.5 199.5 451.5 204C451.5 208.5 451.499 208.5 451.499 208.5H351.5ZM451.499 199.5C453.984 199.5 456 201.515 456 204C456 206.485 453.984 208.5 451.499 208.5V199.5ZM35.501 208.5C33.0157 208.5 31 206.485 31 204C31 201.515 33.0157 199.5 35.501 199.5V208.5Z" fill="white"/>
<path d="M348.499 7.02187C315.586 7.02209 298.784 27.3942 287.102 46.4174C284.196 51.1498 281.542 55.9059 279.074 60.2113C276.572 64.5739 274.258 68.4792 271.916 71.7758C267.111 78.5403 263.037 81.5219 258.499 81.5219H224.999C220.427 81.5216 216.227 78.498 211.262 71.7221C208.845 68.4227 206.447 64.514 203.867 60.1566C201.321 55.8574 198.586 51.1018 195.623 46.3803C183.74 27.4428 166.942 7.02191 134.999 7.02187H53.9994C51.5144 7.02219 49.4994 9.03682 49.4994 11.5219C49.4994 14.0069 51.5144 16.0215 53.9994 16.0219H134.999C162.056 16.0219 176.509 32.8512 188 51.1635C190.881 55.7542 193.499 60.3116 196.122 64.7426C198.712 69.1154 201.303 73.3556 204.002 77.0404C209.272 84.2327 215.822 90.5216 224.999 90.5219H258.499C267.712 90.5219 274.137 84.1905 279.254 76.9867C281.874 73.2991 284.377 69.0555 286.881 64.6879C289.418 60.2632 291.959 55.7061 294.772 51.1264C305.965 32.8999 320.413 16.0221 348.499 16.0219H430.999C433.485 16.0219 435.499 14.0071 435.499 11.5219C435.499 9.03661 433.485 7.02187 430.999 7.02187H348.499Z" fill="white"/>
<path d="M350 256C317.087 256 300.285 235.628 288.603 216.604C285.696 211.872 283.043 207.116 280.574 202.811C278.073 198.448 275.759 194.543 273.417 191.246C268.612 184.482 264.538 181.5 260 181.5H226.5C221.927 181.5 217.727 184.524 212.763 191.3C210.345 194.599 207.947 198.508 205.367 202.865C202.821 207.164 200.087 211.92 197.124 216.642C185.24 235.579 168.443 256 136.5 256H55.5C53.015 256 51 253.985 51 251.5C51 249.015 53.015 247 55.5 247H136.5C163.557 247 178.01 230.171 189.501 211.858C192.382 207.268 194.999 202.71 197.623 198.279C200.213 193.906 202.803 189.666 205.503 185.981C210.772 178.789 217.323 172.5 226.5 172.5H260C269.212 172.5 275.638 178.831 280.755 186.035C283.374 189.723 285.878 193.966 288.382 198.334C290.919 202.759 293.46 207.316 296.272 211.896C307.465 230.122 321.914 247 350 247H432.5C434.985 247 437 249.015 437 251.5C437 253.985 434.985 256 432.5 256H350Z" fill="white"/>
<path d="M439.5 10C439.5 14.9706 435.471 19 430.5 19C425.529 19 421.5 14.9706 421.5 10C421.5 5.02944 425.529 1 430.5 1C435.471 1 439.5 5.02944 439.5 10Z" fill="white"/>
<path d="M440 251.5C440 256.471 435.971 260.5 431 260.5C426.029 260.5 422 256.471 422 251.5C422 246.529 426.029 242.5 431 242.5C435.971 242.5 440 246.529 440 251.5Z" fill="white"/>
<path d="M460 52.5C460 57.4706 455.971 61.5 451 61.5C446.029 61.5 442 57.4706 442 52.5C442 47.5294 446.029 43.5 451 43.5C455.971 43.5 460 47.5294 460 52.5Z" fill="white"/>
<path d="M480 173.5C480 178.471 475.971 182.5 471 182.5C466.029 182.5 462 178.471 462 173.5C462 168.529 466.029 164.5 471 164.5C475.971 164.5 480 168.529 480 173.5Z" fill="white"/>
<path d="M480 86.5C480 91.4706 475.971 95.5 471 95.5C466.029 95.5 462 91.4706 462 86.5C462 81.5294 466.029 77.5 471 77.5C475.971 77.5 480 81.5294 480 86.5Z" fill="white"/>
<path d="M460 203.5C460 208.471 455.971 212.5 451 212.5C446.029 212.5 442 208.471 442 203.5C442 198.529 446.029 194.5 451 194.5C455.971 194.5 460 198.529 460 203.5Z" fill="white"/>
<path d="M64 11.5C64 16.4706 59.9706 20.5 55 20.5C50.0294 20.5 46 16.4706 46 11.5C46 6.52944 50.0294 2.5 55 2.5C59.9706 2.5 64 6.52944 64 11.5Z" fill="white"/>
<path d="M64 251.5C64 256.471 59.9706 260.5 55 260.5C50.0294 260.5 46 256.471 46 251.5C46 246.529 50.0294 242.5 55 242.5C59.9706 242.5 64 246.529 64 251.5Z" fill="white"/>
<path d="M40 52.5C40 57.4706 35.9706 61.5 31 61.5C26.0294 61.5 22 57.4706 22 52.5C22 47.5294 26.0294 43.5 31 43.5C35.9706 43.5 40 47.5294 40 52.5Z" fill="white"/>
<path d="M19 87.5C19 92.4706 14.9706 96.5 10 96.5C5.02944 96.5 1 92.4706 1 87.5C1 82.5294 5.02944 78.5 10 78.5C14.9706 78.5 19 82.5294 19 87.5Z" fill="white"/>
<path d="M19 175.5C19 180.471 14.9706 184.5 10 184.5C5.02944 184.5 1 180.471 1 175.5C1 170.529 5.02944 166.5 10 166.5C14.9706 166.5 19 170.529 19 175.5Z" fill="white"/>
<path d="M41 203.5C41 208.471 36.9706 212.5 32 212.5C27.0294 212.5 23 208.471 23 203.5C23 198.529 27.0294 194.5 32 194.5C36.9706 194.5 41 198.529 41 203.5Z" fill="white"/>
<path d="M125.838 82.5C133.796 82.5001 142.636 84.5997 148.669 91.4316C154.808 98.3841 162.102 110.012 164.459 127.396C167.141 147.177 157.196 162.119 149.341 170.56C142.816 177.571 133.526 180 124.889 180H13.5V171H124.889C132.045 171 138.517 168.978 142.752 164.428C149.763 156.895 157.702 144.545 155.541 128.604C153.459 113.252 147.078 103.227 141.923 97.3887C138.289 93.2736 132.484 91.5001 125.838 91.5H13.5V82.5H125.838Z" fill="white"/>
<path d="M358.566 81C350.608 81.0001 341.768 83.0997 335.735 89.9316C329.596 96.8841 322.302 108.512 319.945 125.896C317.263 145.677 327.208 160.619 335.063 169.06C341.589 176.071 350.878 178.5 359.516 178.5H470.904V169.5H359.516C352.359 169.5 345.887 167.478 341.652 162.928C334.642 155.395 326.702 143.045 328.863 127.104C330.945 111.752 337.326 101.727 342.481 95.8887C346.115 91.7736 351.92 90.0001 358.566 90H470.904V81H358.566Z" fill="white"/>
<path d="M186.5 130C186.5 120.913 184.396 112.558 182.252 106.422C181.185 103.368 180.12 100.9 179.33 99.2109C178.936 98.3671 178.61 97.72 178.39 97.2939C178.279 97.081 178.196 96.9232 178.143 96.8242C178.116 96.7747 178.097 96.7395 178.086 96.7197C178.081 96.7102 178.077 96.7046 178.075 96.7021L178.077 96.7041L185.923 92.2959L185.929 92.3047C185.931 92.3092 185.934 92.3149 185.938 92.3213C185.945 92.3345 185.954 92.3521 185.966 92.373C185.989 92.415 186.02 92.4725 186.06 92.5449C186.138 92.6898 186.248 92.8947 186.384 93.1572C186.655 93.6823 187.033 94.4378 187.482 95.3984C188.38 97.3183 189.566 100.07 190.748 103.453C193.103 110.192 195.5 119.587 195.5 130C195.5 140.455 192.96 149.759 190.462 156.397C189.208 159.73 187.952 162.427 186.999 164.308C186.522 165.249 186.119 165.988 185.83 166.502C185.686 166.759 185.569 166.96 185.485 167.103C185.443 167.174 185.41 167.231 185.385 167.272C185.372 167.293 185.362 167.31 185.354 167.323C185.35 167.33 185.347 167.335 185.344 167.34C185.342 167.342 185.341 167.345 185.34 167.347C185.339 167.348 185.338 167.349 185.338 167.35L177.662 162.65C177.664 162.648 177.667 162.643 177.67 162.638C177.681 162.619 177.7 162.587 177.728 162.54C177.783 162.446 177.871 162.295 177.986 162.09C178.217 161.68 178.556 161.056 178.97 160.239C179.798 158.604 180.917 156.208 182.038 153.228C184.29 147.241 186.5 139.045 186.5 130Z" fill="white"/>
<path d="M298.5 126C298.5 116.987 300.819 108.684 303.194 102.566C304.376 99.5235 305.556 97.0635 306.431 95.3789C306.868 94.5377 307.228 93.8931 307.472 93.4688C307.594 93.2566 307.686 93.0993 307.745 93.001C307.774 92.9522 307.796 92.918 307.808 92.8984L307.817 92.8828L300.183 88.1172L300.177 88.126C300.174 88.1307 300.17 88.1369 300.166 88.1436C300.158 88.1568 300.148 88.1745 300.135 88.1953C300.109 88.2374 300.074 88.2948 300.03 88.3672C299.943 88.5127 299.82 88.719 299.669 88.9824C299.366 89.5092 298.945 90.2671 298.444 91.2305C297.444 93.1552 296.124 95.914 294.806 99.3086C292.181 106.066 289.5 115.513 289.5 126C289.5 136.455 292.04 145.759 294.538 152.397C295.792 155.73 297.048 158.427 298.001 160.308C298.478 161.249 298.881 161.988 299.17 162.502C299.314 162.759 299.431 162.96 299.515 163.103C299.557 163.174 299.59 163.231 299.615 163.272C299.628 163.293 299.638 163.31 299.646 163.323C299.65 163.33 299.653 163.335 299.656 163.34C299.658 163.342 299.659 163.345 299.66 163.347C299.661 163.348 299.662 163.349 299.662 163.35L307.338 158.65C307.336 158.648 307.333 158.643 307.33 158.638C307.319 158.619 307.3 158.587 307.272 158.54C307.217 158.446 307.129 158.295 307.014 158.09C306.783 157.68 306.444 157.056 306.03 156.239C305.202 154.604 304.083 152.208 302.962 149.228C300.71 143.241 298.5 135.045 298.5 126Z" fill="white"/>
<path d="M290.5 120.5V134.5H194.5V120.5H290.5Z" fill="white"/>
</svg>
