<svg width="1051" height="240" viewBox="0 0 1051 240" fill="none" xmlns="http://www.w3.org/2000/svg">
<g clip-path="url(#clip0_1_5)">
<path d="M295.839 70.2888C276.269 70.2888 266.736 85.6696 259.657 99.0059C255.963 105.966 252.963 112.321 249.457 117.111C246.006 121.825 242.677 124.149 238.664 124.149H191.578C187.565 124.149 184.237 121.825 180.786 117.111C177.28 112.321 174.279 105.966 170.585 99.0059C163.506 85.6696 153.973 70.2888 134.403 70.2888H59.6646C59.6646 70.2888 59.6639 70.2888 59.6639 73.655C59.6639 77.0213 59.6646 77.0213 59.6646 77.0213H134.403C149.586 77.0213 157.43 88.5708 164.645 102.165C168.098 108.67 171.474 115.78 175.36 121.089C179.301 126.473 184.38 130.882 191.578 130.882H238.664C245.862 130.882 250.941 126.473 254.882 121.089C258.768 115.78 262.144 108.67 265.597 102.165C272.812 88.5708 280.656 77.0213 295.839 77.0213H370.578C370.578 77.0213 370.578 77.0213 370.578 73.655C370.578 70.2888 370.578 70.2888 370.578 70.2888H295.839ZM370.578 77.0213C372.435 77.0213 373.942 75.5142 373.942 73.655C373.942 71.7959 372.435 70.2888 370.578 70.2888V77.0213ZM59.6646 70.2888C57.8071 70.2888 56.3006 71.7959 56.3006 73.655C56.3006 75.5142 57.8071 77.0213 59.6646 77.0213V70.2888Z" fill="white"/>
<path d="M296.96 191.101C277.39 191.101 267.857 175.72 260.778 162.384C257.084 155.424 254.084 149.069 250.578 144.279C247.127 139.565 243.798 137.24 239.785 137.24H192.699C188.686 137.24 185.358 139.565 181.907 144.279C178.401 149.069 175.4 155.424 171.706 162.384C164.627 175.72 155.094 191.101 135.524 191.101H60.7857C60.7857 191.101 60.785 191.101 60.785 187.734C60.785 184.368 60.7857 184.368 60.7857 184.368H135.524C150.707 184.368 158.551 172.819 165.766 159.225C169.219 152.72 172.595 145.609 176.481 140.3C180.422 134.916 185.501 130.508 192.699 130.508H239.785C246.983 130.508 252.062 134.916 256.003 140.3C259.89 145.609 263.265 152.72 266.718 159.225C273.933 172.819 281.777 184.368 296.96 184.368H371.699C371.699 184.368 371.699 184.368 371.699 187.734C371.699 191.101 371.699 191.101 371.699 191.101H296.96ZM371.699 184.368C373.556 184.368 375.063 185.875 375.063 187.734C375.063 189.594 373.556 191.101 371.699 191.101V184.368ZM60.7857 191.101C58.9282 191.101 57.4217 189.594 57.4217 187.734C57.4217 185.875 58.9282 184.368 60.7857 184.368V191.101Z" fill="white"/>
<path d="M294.718 40.3826C270.119 40.3828 257.561 55.6224 248.83 69.8529C246.658 73.393 244.675 76.9509 242.83 80.1716C240.96 83.4351 239.23 86.3565 237.48 88.8226C233.889 93.8829 230.844 96.1132 227.453 96.1133H202.415C198.998 96.1131 195.858 93.8512 192.148 88.7824C190.341 86.3143 188.549 83.3903 186.621 80.1307C184.718 76.9146 182.674 73.3572 180.46 69.8252C171.578 55.6588 159.024 40.3827 135.15 40.3826H74.6112C72.754 40.3829 71.248 41.8899 71.248 43.7489C71.248 45.6079 72.754 47.1149 74.6112 47.1152H135.15C155.372 47.1152 166.174 59.7046 174.762 73.4033C176.915 76.8374 178.872 80.2466 180.833 83.5613C182.768 86.8324 184.704 90.0044 186.722 92.7609C190.66 98.1411 195.556 102.846 202.415 102.846H227.453C234.338 102.846 239.14 98.1096 242.965 92.7207C244.922 89.9621 246.793 86.7877 248.665 83.5204C250.561 80.2104 252.46 76.8015 254.562 73.3755C262.928 59.741 273.727 47.1154 294.718 47.1152H356.377C358.235 47.1152 359.741 45.6081 359.741 43.7489C359.741 41.8898 358.235 40.3826 356.377 40.3826H294.718Z" fill="white"/>
<path d="M295.839 226.634C271.24 226.634 258.682 211.394 249.951 197.163C247.779 193.623 245.796 190.065 243.951 186.845C242.082 183.581 240.352 180.66 238.602 178.194C235.011 173.133 231.965 170.903 228.574 170.903H203.537C200.119 170.903 196.98 173.165 193.269 178.234C191.463 180.702 189.671 183.626 187.742 186.886C185.839 190.102 183.796 193.659 181.581 197.191C172.699 211.358 160.145 226.634 136.271 226.634H75.7328C73.8755 226.633 72.3695 225.126 72.3695 223.267C72.3695 221.408 73.8755 219.901 75.7328 219.901H136.271C156.493 219.901 167.295 207.312 175.884 193.613C178.037 190.179 179.993 186.77 181.954 183.455C183.89 180.184 185.826 177.012 187.844 174.255C191.782 168.875 196.678 164.171 203.537 164.171H228.574C235.459 164.171 240.262 168.907 244.086 174.296C246.044 177.054 247.915 180.229 249.786 183.496C251.683 186.806 253.582 190.215 255.684 193.641C264.049 207.275 274.848 219.901 295.839 219.901H760.5C762.357 219.901 763.863 221.408 763.863 223.267C763.863 225.127 762.357 226.634 760.5 226.634H295.839Z" fill="white"/>
<path d="M362.635 43.7489C362.635 47.4672 359.623 50.4815 355.908 50.4815C352.193 50.4815 349.182 47.4672 349.182 43.7489C349.182 40.0306 352.193 37.0164 355.908 37.0164C359.623 37.0164 362.635 40.0306 362.635 43.7489Z" fill="white"/>
<path d="M767.227 222.167C767.227 225.885 764.215 228.899 760.5 228.899C756.785 228.899 753.773 225.885 753.773 222.167C753.773 218.449 756.785 215.434 760.5 215.434C764.215 215.434 767.227 218.449 767.227 222.167Z" fill="white"/>
<path d="M377.117 73.655C377.117 77.3733 374.105 80.3876 370.39 80.3876C366.675 80.3876 363.664 77.3733 363.664 73.655C363.664 69.9367 366.675 66.9225 370.39 66.9225C374.105 66.9225 377.117 69.9367 377.117 73.655Z" fill="white"/>
<path d="M393 164.919C393 168.637 389.988 171.651 386.273 171.651C382.559 171.651 379.547 168.637 379.547 164.919C379.547 161.2 382.559 158.186 386.273 158.186C389.988 158.186 393 161.2 393 164.919Z" fill="white"/>
<path d="M393 99.8372C393 103.555 389.988 106.57 386.273 106.57C382.559 106.57 379.547 103.555 379.547 99.8372C379.547 96.1189 382.559 93.1046 386.273 93.1046C389.988 93.1046 393 96.1189 393 99.8372Z" fill="white"/>
<path d="M378.052 187.36C378.052 191.079 375.041 194.093 371.326 194.093C367.611 194.093 364.599 191.079 364.599 187.36C364.599 183.642 367.611 180.628 371.326 180.628C375.041 180.628 378.052 183.642 378.052 187.36Z" fill="white"/>
<path d="M82.0856 43.7326C82.0856 47.4508 79.074 50.4651 75.3591 50.4651C71.6441 50.4651 68.6326 47.4508 68.6326 43.7326C68.6326 40.0143 71.6441 37 75.3591 37C79.074 37 82.0856 40.0143 82.0856 43.7326Z" fill="white"/>
<path d="M82.0856 223.267C82.0856 226.986 79.074 230 75.3591 230C71.6441 230 68.6326 226.986 68.6326 223.267C68.6326 219.549 71.6441 216.535 75.3591 216.535C79.074 216.535 82.0856 219.549 82.0856 223.267Z" fill="white"/>
<path d="M64.1482 74.4031C64.1482 78.1214 61.1367 81.1357 57.4217 81.1357C53.7068 81.1357 50.6952 78.1214 50.6952 74.4031C50.6952 70.6848 53.7068 67.6705 57.4217 67.6705C61.1367 67.6705 64.1482 70.6848 64.1482 74.4031Z" fill="white"/>
<path d="M48.453 100.585C48.453 104.304 45.4415 107.318 41.7265 107.318C38.0116 107.318 35 104.304 35 100.585C35 96.867 38.0116 93.8527 41.7265 93.8527C45.4415 93.8527 48.453 96.867 48.453 100.585Z" fill="white"/>
<path d="M48.453 166.415C48.453 170.133 45.4415 173.147 41.7265 173.147C38.0116 173.147 35 170.133 35 166.415C35 162.696 38.0116 159.682 41.7265 159.682C45.4415 159.682 48.453 162.696 48.453 166.415Z" fill="white"/>
<path d="M64.8956 187.36C64.8956 191.079 61.8841 194.093 58.1691 194.093C54.4542 194.093 51.4426 191.079 51.4426 187.36C51.4426 183.642 54.4542 180.628 58.1691 180.628C61.8841 180.628 64.8956 183.642 64.8956 187.36Z" fill="white"/>
<path d="M128.303 96.845C134.25 96.845 140.857 98.4157 145.366 103.526C149.955 108.727 155.406 117.425 157.168 130.43C159.172 145.228 151.74 156.405 145.869 162.719C140.992 167.964 134.049 169.781 127.593 169.781H44.3424V163.048H127.593C132.942 163.048 137.779 161.536 140.944 158.132C146.184 152.497 152.118 143.258 150.502 131.334C148.947 119.85 144.178 112.35 140.324 107.983C137.609 104.904 133.27 103.578 128.303 103.578H44.3424V96.845H128.303Z" fill="white"/>
<path d="M302.242 95.7229C296.294 95.7229 289.687 97.2936 285.178 102.404C280.59 107.605 275.138 116.303 273.377 129.307C271.372 144.106 278.805 155.283 284.676 161.597C289.553 166.842 296.495 168.659 302.951 168.659H386.202V161.926H302.951C297.603 161.926 292.765 160.414 289.6 157.01C284.36 151.375 278.426 142.136 280.042 130.212C281.598 118.728 286.367 111.228 290.22 106.861C292.936 103.782 297.275 102.455 302.242 102.455H386.202V95.7229H302.242Z" fill="white"/>
<path d="M173.641 132.378C173.641 125.58 172.069 119.33 170.466 114.74C169.668 112.456 168.873 110.61 168.282 109.346C167.987 108.715 167.744 108.23 167.579 107.912C167.497 107.752 167.435 107.634 167.395 107.56C167.375 107.523 167.36 107.497 167.352 107.482C167.348 107.475 167.344 107.469 167.344 107.469L167.346 107.471L173.21 104.173L173.214 104.179C173.216 104.183 173.218 104.187 173.221 104.192C173.226 104.202 173.233 104.215 173.242 104.231C173.259 104.262 173.282 104.305 173.312 104.359C173.37 104.468 173.453 104.621 173.554 104.817C173.757 105.21 174.04 105.775 174.375 106.494C175.046 107.93 175.932 109.988 176.816 112.519C178.576 117.561 180.367 124.588 180.367 132.378C180.367 140.199 178.469 147.159 176.602 152.125C175.665 154.618 174.726 156.636 174.014 158.042C173.658 158.746 173.356 159.299 173.14 159.684C173.032 159.876 172.945 160.026 172.883 160.133C172.851 160.186 172.826 160.229 172.807 160.26C172.798 160.275 172.79 160.288 172.784 160.298C172.781 160.303 172.779 160.307 172.777 160.31L172.774 160.316L172.772 160.318L167.036 156.802C167.036 156.802 167.039 156.797 167.041 156.793C167.05 156.779 167.064 156.755 167.084 156.72C167.126 156.65 167.192 156.536 167.278 156.383C167.45 156.077 167.704 155.61 168.013 154.999C168.632 153.775 169.468 151.983 170.306 149.754C171.989 145.275 173.641 139.144 173.641 132.378Z" fill="white"/>
<path d="M257.349 129.386C257.349 122.644 259.082 116.432 260.857 111.856C261.74 109.58 262.622 107.739 263.276 106.479C263.603 105.85 263.872 105.368 264.054 105.05C264.145 104.892 264.214 104.774 264.258 104.7C264.28 104.664 264.296 104.638 264.305 104.624L264.312 104.612L258.606 101.047L258.602 101.054C258.6 101.057 258.597 101.062 258.594 101.067C258.588 101.077 258.58 101.09 258.57 101.105C258.551 101.137 258.525 101.18 258.492 101.234C258.427 101.343 258.336 101.497 258.222 101.694C257.996 102.088 257.681 102.655 257.307 103.376C256.56 104.816 255.573 106.879 254.588 109.419C252.626 114.474 250.622 121.54 250.622 129.386C250.622 137.207 252.521 144.166 254.388 149.133C255.325 151.625 256.264 153.643 256.976 155.05C257.332 155.754 257.633 156.307 257.849 156.691C257.957 156.884 258.044 157.034 258.107 157.141C258.138 157.194 258.164 157.237 258.182 157.268C258.191 157.283 258.2 157.296 258.206 157.306C258.208 157.311 258.211 157.315 258.213 157.318L258.216 157.323L258.217 157.325L263.954 153.81C263.954 153.81 263.951 153.805 263.948 153.801C263.94 153.787 263.926 153.763 263.905 153.728C263.864 153.657 263.798 153.544 263.712 153.391C263.54 153.085 263.286 152.617 262.977 152.006C262.357 150.783 261.521 148.991 260.683 146.761C259 142.283 257.349 136.152 257.349 129.386Z" fill="white"/>
<path d="M251.37 125.271V135.744H179.62V125.271H251.37Z" fill="white"/>
<path d="M465.534 33.2727H474.341V81.4261C474.341 86.3977 473.169 90.8366 470.825 94.7429C468.505 98.6255 465.226 101.691 460.989 103.94C456.751 106.166 451.779 107.278 446.074 107.278C440.368 107.278 435.397 106.166 431.159 103.94C426.921 101.691 423.631 98.6255 421.287 94.7429C418.967 90.8366 417.807 86.3977 417.807 81.4261V33.2727H426.614V80.7159C426.614 84.267 427.395 87.4276 428.957 90.1974C430.52 92.9437 432.745 95.1098 435.634 96.696C438.545 98.2585 442.026 99.0398 446.074 99.0398C450.122 99.0398 453.602 98.2585 456.514 96.696C459.426 95.1098 461.652 92.9437 463.19 90.1974C464.753 87.4276 465.534 84.267 465.534 80.7159V33.2727ZM531.701 51.4545C531.275 47.8561 529.546 45.0625 526.516 43.0739C523.486 41.0852 519.769 40.0909 515.365 40.0909C512.146 40.0909 509.328 40.6117 506.914 41.6534C504.523 42.6951 502.652 44.1274 501.303 45.9503C499.977 47.7732 499.314 49.8447 499.314 52.1648C499.314 54.1061 499.776 55.7751 500.699 57.1719C501.646 58.545 502.854 59.6932 504.321 60.6165C505.789 61.5161 507.328 62.2618 508.938 62.8537C510.548 63.4219 512.027 63.8835 513.377 64.2386L520.763 66.2273C522.657 66.7244 524.764 67.411 527.084 68.2869C529.428 69.1629 531.665 70.3584 533.796 71.8736C535.95 73.3651 537.726 75.2827 539.123 77.6264C540.519 79.9702 541.218 82.8466 541.218 86.2557C541.218 90.1856 540.188 93.7367 538.128 96.9091C536.092 100.081 533.109 102.603 529.179 104.473C525.273 106.343 520.526 107.278 514.939 107.278C509.731 107.278 505.221 106.438 501.409 104.757C497.622 103.076 494.639 100.732 492.461 97.7259C490.306 94.7192 489.087 91.2273 488.803 87.25H497.894C498.131 89.9962 499.054 92.2689 500.664 94.0682C502.297 95.8437 504.357 97.1695 506.843 98.0455C509.352 98.8977 512.051 99.3239 514.939 99.3239C518.301 99.3239 521.319 98.7794 523.995 97.6903C526.67 96.5777 528.789 95.0388 530.351 93.0739C531.914 91.0852 532.695 88.7652 532.695 86.1136C532.695 83.6989 532.02 81.7339 530.671 80.2188C529.321 78.7036 527.546 77.4725 525.344 76.5256C523.142 75.5786 520.763 74.75 518.206 74.0398L509.257 71.483C503.576 69.8494 499.078 67.5175 495.763 64.4872C492.449 61.4569 490.792 57.4915 490.792 52.5909C490.792 48.5189 491.892 44.9678 494.094 41.9375C496.319 38.8835 499.302 36.5161 503.043 34.8352C506.807 33.1307 511.009 32.2784 515.65 32.2784C520.337 32.2784 524.504 33.1188 528.15 34.7997C531.795 36.4569 534.684 38.7296 536.814 41.6179C538.969 44.5062 540.105 47.785 540.223 51.4545H531.701ZM555.697 106V33.2727H581.124C586.19 33.2727 590.368 34.1487 593.659 35.9006C596.95 37.6288 599.4 39.9607 601.01 42.8963C602.62 45.8082 603.425 49.0398 603.425 52.5909C603.425 55.7159 602.868 58.2964 601.756 60.3324C600.667 62.3684 599.223 63.9782 597.423 65.1619C595.648 66.3456 593.718 67.2216 591.635 67.7898V68.5C593.86 68.642 596.098 69.4233 598.347 70.8438C600.596 72.2642 602.478 74.3002 603.993 76.9517C605.508 79.6032 606.266 82.8466 606.266 86.6818C606.266 90.3277 605.437 93.6065 603.78 96.5185C602.123 99.4304 599.507 101.739 595.932 103.443C592.357 105.148 587.705 106 581.976 106H555.697ZM564.504 98.1875H581.976C587.729 98.1875 591.813 97.0748 594.227 94.8494C596.666 92.6004 597.885 89.8778 597.885 86.6818C597.885 84.2197 597.258 81.947 596.003 79.8636C594.748 77.7566 592.961 76.0758 590.641 74.821C588.321 73.5426 585.574 72.9034 582.402 72.9034H564.504V98.1875ZM564.504 65.233H580.839C583.491 65.233 585.882 64.7121 588.013 63.6705C590.167 62.6288 591.872 61.161 593.126 59.267C594.405 57.3731 595.044 55.1477 595.044 52.5909C595.044 49.3949 593.931 46.6842 591.706 44.4588C589.481 42.2098 585.953 41.0852 581.124 41.0852H564.504V65.233ZM619.6 106V51.4545H627.697V59.6932H628.265C629.259 56.9943 631.058 54.8045 633.663 53.1236C636.267 51.4427 639.202 50.6023 642.469 50.6023C643.085 50.6023 643.854 50.6141 644.778 50.6378C645.701 50.6615 646.399 50.697 646.873 50.7443V59.267C646.589 59.196 645.938 59.0895 644.92 58.9474C643.925 58.7817 642.872 58.6989 641.759 58.6989C639.108 58.6989 636.74 59.2552 634.657 60.3679C632.597 61.4569 630.964 62.9721 629.756 64.9134C628.573 66.831 627.981 69.0208 627.981 71.483V106H619.6ZM656.807 106V51.4545H665.188V106H656.807ZM661.069 42.3636C659.435 42.3636 658.026 41.8073 656.843 40.6946C655.683 39.5819 655.103 38.2443 655.103 36.6818C655.103 35.1193 655.683 33.7817 656.843 32.669C658.026 31.5563 659.435 31 661.069 31C662.702 31 664.099 31.5563 665.259 32.669C666.443 33.7817 667.034 35.1193 667.034 36.6818C667.034 38.2443 666.443 39.5819 665.259 40.6946C664.099 41.8073 662.702 42.3636 661.069 42.3636ZM701.134 107.136C696.589 107.136 692.576 105.988 689.096 103.692C685.616 101.372 682.893 98.1046 680.928 93.8906C678.963 89.6529 677.981 84.6458 677.981 78.8693C677.981 73.1402 678.963 68.1686 680.928 63.9545C682.893 59.7405 685.628 56.4853 689.131 54.1889C692.635 51.8925 696.683 50.7443 701.276 50.7443C704.827 50.7443 707.633 51.3362 709.692 52.5199C711.776 53.6799 713.362 55.0057 714.451 56.4972C715.564 57.965 716.428 59.1723 717.043 60.1193H717.754V33.2727H726.134V106H718.038V97.6193H717.043C716.428 98.6136 715.552 99.8684 714.415 101.384C713.279 102.875 711.657 104.213 709.55 105.396C707.443 106.556 704.638 107.136 701.134 107.136ZM702.271 99.608C705.632 99.608 708.473 98.732 710.793 96.9801C713.113 95.2045 714.877 92.7543 716.085 89.6293C717.292 86.4806 717.896 82.8466 717.896 78.7273C717.896 74.6553 717.304 71.0923 716.12 68.0384C714.936 64.9607 713.184 62.5696 710.864 60.8651C708.544 59.1368 705.68 58.2727 702.271 58.2727C698.719 58.2727 695.76 59.1842 693.393 61.0071C691.049 62.8063 689.285 65.2566 688.102 68.358C686.942 71.4356 686.362 74.892 686.362 78.7273C686.362 82.6098 686.953 86.1373 688.137 89.3097C689.344 92.4583 691.12 94.9678 693.464 96.8381C695.831 98.6847 698.767 99.608 702.271 99.608ZM764.664 127.591C760.616 127.591 757.136 127.07 754.224 126.028C751.312 125.01 748.885 123.661 746.944 121.98C745.026 120.323 743.499 118.547 742.363 116.653L749.039 111.966C749.797 112.96 750.755 114.097 751.915 115.375C753.076 116.677 754.662 117.802 756.674 118.749C758.71 119.719 761.373 120.205 764.664 120.205C769.067 120.205 772.701 119.139 775.566 117.009C778.431 114.878 779.863 111.54 779.863 106.994V95.9148H779.153C778.537 96.9091 777.661 98.1402 776.525 99.608C775.412 101.052 773.802 102.342 771.695 103.479C769.612 104.591 766.795 105.148 763.244 105.148C758.84 105.148 754.887 104.106 751.383 102.023C747.903 99.9394 745.145 96.9091 743.109 92.9318C741.096 88.9545 740.09 84.125 740.09 78.4432C740.09 72.8561 741.073 67.991 743.038 63.848C745.003 59.6813 747.737 56.4616 751.241 54.1889C754.745 51.8925 758.793 50.7443 763.386 50.7443C766.937 50.7443 769.754 51.3362 771.837 52.5199C773.944 53.6799 775.554 55.0057 776.667 56.4972C777.803 57.965 778.679 59.1723 779.295 60.1193H780.147V51.4545H788.244V107.562C788.244 112.25 787.178 116.062 785.048 118.997C782.941 121.956 780.1 124.123 776.525 125.496C772.974 126.893 769.02 127.591 764.664 127.591ZM764.38 97.6193C767.742 97.6193 770.583 96.8499 772.903 95.3111C775.223 93.7723 776.987 91.5587 778.194 88.6705C779.401 85.7822 780.005 82.3258 780.005 78.3011C780.005 74.3712 779.413 70.9029 778.229 67.8963C777.046 64.8897 775.294 62.5341 772.974 60.8295C770.654 59.125 767.789 58.2727 764.38 58.2727C760.829 58.2727 757.87 59.1723 755.502 60.9716C753.158 62.7708 751.395 65.1856 750.211 68.2159C749.051 71.2462 748.471 74.608 748.471 78.3011C748.471 82.089 749.063 85.4389 750.246 88.3509C751.454 91.2391 753.229 93.5118 755.573 95.169C757.941 96.8026 760.876 97.6193 764.38 97.6193ZM826.454 107.136C821.198 107.136 816.665 105.976 812.853 103.656C809.065 101.312 806.141 98.0455 804.082 93.8551C802.046 89.6411 801.028 84.7405 801.028 79.1534C801.028 73.5663 802.046 68.642 804.082 64.3807C806.141 60.0956 809.006 56.7576 812.675 54.3665C816.369 51.9517 820.677 50.7443 825.602 50.7443C828.442 50.7443 831.248 51.2178 834.018 52.1648C836.788 53.1117 839.309 54.6506 841.582 56.7812C843.854 58.8883 845.665 61.6818 847.015 65.1619C848.364 68.642 849.039 72.9271 849.039 78.017V81.5682H806.994V74.3239H840.516C840.516 71.2462 839.901 68.5 838.67 66.0852C837.462 63.6705 835.734 61.7647 833.485 60.3679C831.26 58.9711 828.632 58.2727 825.602 58.2727C822.263 58.2727 819.375 59.1013 816.937 60.7585C814.522 62.392 812.664 64.5227 811.362 67.1506C810.059 69.7784 809.408 72.5956 809.408 75.6023V80.4318C809.408 84.5511 810.119 88.0431 811.539 90.9077C812.983 93.7486 814.984 95.9148 817.54 97.4062C820.097 98.8741 823.068 99.608 826.454 99.608C828.656 99.608 830.644 99.3002 832.42 98.6847C834.219 98.0455 835.77 97.0985 837.072 95.8438C838.374 94.5653 839.38 92.9792 840.09 91.0852L848.187 93.358C847.335 96.1042 845.902 98.5189 843.89 100.602C841.878 102.662 839.392 104.272 836.433 105.432C833.473 106.568 830.147 107.136 826.454 107.136ZM413.83 141.085V133.273H468.375V141.085H445.506V206H436.699V141.085H413.83ZM495.79 207.136C490.534 207.136 486 205.976 482.189 203.656C478.401 201.312 475.477 198.045 473.418 193.855C471.382 189.641 470.364 184.741 470.364 179.153C470.364 173.566 471.382 168.642 473.418 164.381C475.477 160.096 478.342 156.758 482.011 154.366C485.705 151.952 490.013 150.744 494.938 150.744C497.778 150.744 500.584 151.218 503.354 152.165C506.124 153.112 508.645 154.651 510.918 156.781C513.19 158.888 515.001 161.682 516.351 165.162C517.7 168.642 518.375 172.927 518.375 178.017V181.568H476.33V174.324H509.852C509.852 171.246 509.237 168.5 508.006 166.085C506.798 163.67 505.07 161.765 502.821 160.368C500.596 158.971 497.968 158.273 494.938 158.273C491.599 158.273 488.711 159.101 486.273 160.759C483.858 162.392 482 164.523 480.697 167.151C479.395 169.778 478.744 172.596 478.744 175.602V180.432C478.744 184.551 479.455 188.043 480.875 190.908C482.319 193.749 484.32 195.915 486.876 197.406C489.433 198.874 492.404 199.608 495.79 199.608C497.991 199.608 499.98 199.3 501.756 198.685C503.555 198.045 505.106 197.098 506.408 195.844C507.71 194.565 508.716 192.979 509.426 191.085L517.523 193.358C516.67 196.104 515.238 198.519 513.226 200.602C511.214 202.662 508.728 204.272 505.768 205.432C502.809 206.568 499.483 207.136 495.79 207.136ZM553.283 207.136C548.169 207.136 543.766 205.929 540.072 203.514C536.379 201.099 533.538 197.773 531.55 193.536C529.561 189.298 528.567 184.456 528.567 179.011C528.567 173.472 529.585 168.583 531.621 164.345C533.68 160.084 536.545 156.758 540.214 154.366C543.908 151.952 548.216 150.744 553.141 150.744C556.976 150.744 560.432 151.455 563.51 152.875C566.588 154.295 569.109 156.284 571.074 158.841C573.039 161.398 574.258 164.381 574.732 167.79H566.351C565.712 165.304 564.291 163.102 562.089 161.185C559.911 159.243 556.976 158.273 553.283 158.273C550.016 158.273 547.151 159.125 544.689 160.83C542.25 162.51 540.345 164.89 538.972 167.967C537.622 171.021 536.947 174.608 536.947 178.727C536.947 182.941 537.61 186.611 538.936 189.736C540.286 192.861 542.179 195.287 544.618 197.016C547.08 198.744 549.968 199.608 553.283 199.608C555.461 199.608 557.438 199.229 559.213 198.472C560.989 197.714 562.492 196.625 563.723 195.205C564.954 193.784 565.83 192.08 566.351 190.091H574.732C574.258 193.311 573.086 196.211 571.216 198.791C569.369 201.348 566.919 203.384 563.865 204.899C560.835 206.391 557.307 207.136 553.283 207.136ZM595.364 173.188V206H586.983V133.273H595.364V159.977H596.074C597.352 157.16 599.27 154.923 601.827 153.266C604.407 151.585 607.84 150.744 612.125 150.744C615.842 150.744 619.097 151.49 621.891 152.982C624.684 154.449 626.85 156.71 628.389 159.764C629.952 162.795 630.733 166.653 630.733 171.341V206H622.352V171.909C622.352 167.577 621.228 164.227 618.979 161.859C616.753 159.468 613.664 158.273 609.71 158.273C606.964 158.273 604.502 158.853 602.324 160.013C600.17 161.173 598.465 162.866 597.21 165.091C595.979 167.316 595.364 170.015 595.364 173.188ZM654.446 173.188V206H646.065V151.455H654.162V159.977H654.872C656.15 157.207 658.092 154.982 660.696 153.301C663.3 151.597 666.662 150.744 670.781 150.744C674.474 150.744 677.706 151.502 680.475 153.017C683.245 154.509 685.4 156.781 686.939 159.835C688.477 162.866 689.247 166.701 689.247 171.341V206H680.866V171.909C680.866 167.624 679.753 164.286 677.528 161.895C675.303 159.48 672.249 158.273 668.366 158.273C665.691 158.273 663.3 158.853 661.193 160.013C659.109 161.173 657.464 162.866 656.257 165.091C655.049 167.316 654.446 170.015 654.446 173.188ZM726.72 207.136C721.796 207.136 717.475 205.964 713.759 203.621C710.065 201.277 707.177 197.998 705.094 193.784C703.034 189.57 702.004 184.646 702.004 179.011C702.004 173.33 703.034 168.37 705.094 164.132C707.177 159.894 710.065 156.604 713.759 154.26C717.475 151.916 721.796 150.744 726.72 150.744C731.644 150.744 735.953 151.916 739.646 154.26C743.363 156.604 746.251 159.894 748.311 164.132C750.394 168.37 751.436 173.33 751.436 179.011C751.436 184.646 750.394 189.57 748.311 193.784C746.251 197.998 743.363 201.277 739.646 203.621C735.953 205.964 731.644 207.136 726.72 207.136ZM726.72 199.608C730.461 199.608 733.538 198.649 735.953 196.732C738.368 194.814 740.155 192.293 741.315 189.168C742.475 186.043 743.055 182.657 743.055 179.011C743.055 175.366 742.475 171.968 741.315 168.82C740.155 165.671 738.368 163.126 735.953 161.185C733.538 159.243 730.461 158.273 726.72 158.273C722.98 158.273 719.902 159.243 717.487 161.185C715.072 163.126 713.285 165.671 712.125 168.82C710.965 171.968 710.385 175.366 710.385 179.011C710.385 182.657 710.965 186.043 712.125 189.168C713.285 192.293 715.072 194.814 717.487 196.732C719.902 198.649 722.98 199.608 726.72 199.608ZM772.61 133.273V206H764.229V133.273H772.61ZM810.119 207.136C805.194 207.136 800.874 205.964 797.157 203.621C793.464 201.277 790.576 197.998 788.492 193.784C786.433 189.57 785.403 184.646 785.403 179.011C785.403 173.33 786.433 168.37 788.492 164.132C790.576 159.894 793.464 156.604 797.157 154.26C800.874 151.916 805.194 150.744 810.119 150.744C815.043 150.744 819.352 151.916 823.045 154.26C826.762 156.604 829.65 159.894 831.71 164.132C833.793 168.37 834.835 173.33 834.835 179.011C834.835 184.646 833.793 189.57 831.71 193.784C829.65 197.998 826.762 201.277 823.045 203.621C819.352 205.964 815.043 207.136 810.119 207.136ZM810.119 199.608C813.859 199.608 816.937 198.649 819.352 196.732C821.766 194.814 823.554 192.293 824.714 189.168C825.874 186.043 826.454 182.657 826.454 179.011C826.454 175.366 825.874 171.968 824.714 168.82C823.554 165.671 821.766 163.126 819.352 161.185C816.937 159.243 813.859 158.273 810.119 158.273C806.378 158.273 803.3 159.243 800.886 161.185C798.471 163.126 796.683 165.671 795.523 168.82C794.363 171.968 793.783 175.366 793.783 179.011C793.783 182.657 794.363 186.043 795.523 189.168C796.683 192.293 798.471 194.814 800.886 196.732C803.3 198.649 806.378 199.608 810.119 199.608ZM869.645 227.591C865.596 227.591 862.116 227.07 859.204 226.028C856.292 225.01 853.866 223.661 851.924 221.98C850.007 220.323 848.48 218.547 847.343 216.653L854.02 211.966C854.777 212.96 855.736 214.097 856.896 215.375C858.056 216.677 859.642 217.802 861.654 218.749C863.69 219.719 866.354 220.205 869.645 220.205C874.048 220.205 877.682 219.139 880.547 217.009C883.411 214.878 884.843 211.54 884.843 206.994V195.915H884.133C883.518 196.909 882.642 198.14 881.505 199.608C880.393 201.052 878.783 202.342 876.676 203.479C874.592 204.591 871.775 205.148 868.224 205.148C863.821 205.148 859.867 204.106 856.363 202.023C852.883 199.939 850.125 196.909 848.089 192.932C846.077 188.955 845.071 184.125 845.071 178.443C845.071 172.856 846.053 167.991 848.018 163.848C849.983 159.681 852.717 156.462 856.221 154.189C859.725 151.893 863.773 150.744 868.366 150.744C871.917 150.744 874.734 151.336 876.818 152.52C878.925 153.68 880.535 155.006 881.647 156.497C882.784 157.965 883.66 159.172 884.275 160.119H885.127V151.455H893.224V207.562C893.224 212.25 892.159 216.062 890.028 218.997C887.921 221.956 885.08 224.123 881.505 225.496C877.954 226.893 874.001 227.591 869.645 227.591ZM869.36 197.619C872.722 197.619 875.563 196.85 877.883 195.311C880.203 193.772 881.967 191.559 883.174 188.67C884.382 185.782 884.985 182.326 884.985 178.301C884.985 174.371 884.394 170.903 883.21 167.896C882.026 164.89 880.274 162.534 877.954 160.83C875.634 159.125 872.77 158.273 869.36 158.273C865.809 158.273 862.85 159.172 860.483 160.972C858.139 162.771 856.375 165.186 855.191 168.216C854.031 171.246 853.451 174.608 853.451 178.301C853.451 182.089 854.043 185.439 855.227 188.351C856.434 191.239 858.21 193.512 860.554 195.169C862.921 196.803 865.857 197.619 869.36 197.619ZM908.565 206V151.455H916.946V206H908.565ZM912.826 142.364C911.193 142.364 909.784 141.807 908.6 140.695C907.44 139.582 906.86 138.244 906.86 136.682C906.86 135.119 907.44 133.782 908.6 132.669C909.784 131.556 911.193 131 912.826 131C914.46 131 915.857 131.556 917.017 132.669C918.2 133.782 918.792 135.119 918.792 136.682C918.792 138.244 918.2 139.582 917.017 140.695C915.857 141.807 914.46 142.364 912.826 142.364ZM955.165 207.136C949.909 207.136 945.375 205.976 941.564 203.656C937.776 201.312 934.852 198.045 932.793 193.855C930.757 189.641 929.739 184.741 929.739 179.153C929.739 173.566 930.757 168.642 932.793 164.381C934.852 160.096 937.717 156.758 941.386 154.366C945.08 151.952 949.388 150.744 954.312 150.744C957.153 150.744 959.959 151.218 962.729 152.165C965.499 153.112 968.02 154.651 970.293 156.781C972.565 158.888 974.376 161.682 975.726 165.162C977.075 168.642 977.75 172.927 977.75 178.017V181.568H935.705V174.324H969.227C969.227 171.246 968.612 168.5 967.381 166.085C966.173 163.67 964.445 161.765 962.196 160.368C959.971 158.971 957.343 158.273 954.312 158.273C950.974 158.273 948.086 159.101 945.648 160.759C943.233 162.392 941.375 164.523 940.072 167.151C938.77 169.778 938.119 172.596 938.119 175.602V180.432C938.119 184.551 938.83 188.043 940.25 190.908C941.694 193.749 943.695 195.915 946.251 197.406C948.808 198.874 951.779 199.608 955.165 199.608C957.366 199.608 959.355 199.3 961.131 198.685C962.93 198.045 964.481 197.098 965.783 195.844C967.085 194.565 968.091 192.979 968.801 191.085L976.898 193.358C976.045 196.104 974.613 198.519 972.601 200.602C970.589 202.662 968.103 204.272 965.143 205.432C962.184 206.568 958.858 207.136 955.165 207.136ZM1029.13 163.67L1021.61 165.801C1021.13 164.546 1020.43 163.327 1019.51 162.143C1018.61 160.936 1017.38 159.942 1015.82 159.161C1014.26 158.379 1012.26 157.989 1009.82 157.989C1006.48 157.989 1003.7 158.758 1001.47 160.297C999.27 161.812 998.169 163.741 998.169 166.085C998.169 168.169 998.927 169.814 1000.44 171.021C1001.96 172.229 1004.32 173.235 1007.54 174.04L1015.64 176.028C1020.52 177.212 1024.15 179.023 1026.54 181.462C1028.93 183.876 1030.13 186.99 1030.13 190.801C1030.13 193.926 1029.23 196.72 1027.43 199.182C1025.65 201.644 1023.17 203.585 1019.97 205.006C1016.78 206.426 1013.06 207.136 1008.82 207.136C1003.26 207.136 998.654 205.929 995.009 203.514C991.363 201.099 989.054 197.572 988.084 192.932L996.038 190.943C996.796 193.879 998.228 196.08 1000.34 197.548C1002.47 199.016 1005.25 199.75 1008.68 199.75C1012.59 199.75 1015.69 198.921 1017.98 197.264C1020.3 195.583 1021.46 193.571 1021.46 191.227C1021.46 189.333 1020.8 187.747 1019.48 186.469C1018.15 185.167 1016.11 184.196 1013.37 183.557L1004.28 181.426C999.282 180.242 995.612 178.408 993.268 175.922C990.948 173.412 989.788 170.276 989.788 166.511C989.788 163.434 990.652 160.711 992.381 158.344C994.133 155.976 996.512 154.118 999.518 152.768C1002.55 151.419 1005.98 150.744 1009.82 150.744C1015.21 150.744 1019.45 151.928 1022.53 154.295C1025.63 156.663 1027.83 159.788 1029.13 163.67Z" fill="white"/>
</g>
<defs>
<clipPath id="clip0_1_5">
<rect width="1051" height="240" fill="white"/>
</clipPath>
</defs>
</svg>
